<svg width="268" height="268" viewBox="0 0 268 268" fill="none" xmlns="http://www.w3.org/2000/svg">
<rect width="268" height="268" rx="134" fill="#FF9234"/>
<path fill-rule="evenodd" clip-rule="evenodd" d="M103.589 89.2679C104.208 88.9106 104.971 88.9107 105.59 89.2681L134.371 105.891L163.17 89.2678C163.789 88.9107 164.551 88.9107 165.17 89.268L224.729 123.655C224.736 123.659 224.744 123.664 224.751 123.668C225.37 124.025 225.751 124.685 225.751 125.4V159.8C225.751 160.515 225.37 161.175 224.751 161.532L194.961 178.732C194.729 178.866 194.476 178.95 194.219 178.983C194.035 179.007 193.849 179.005 193.666 178.978C193.421 178.942 193.181 178.86 192.96 178.732L164.162 162.11L135.422 178.708C135.414 178.713 135.405 178.718 135.396 178.723C135.391 178.726 135.386 178.729 135.381 178.732C135.074 178.909 134.731 178.999 134.389 179C134.041 179.002 133.692 178.912 133.38 178.732C133.366 178.724 133.352 178.716 133.338 178.707L104.581 162.101L75.8139 178.718L75.7902 178.732C75.5581 178.866 75.3058 178.95 75.0485 178.983C74.863 179.007 74.6748 179.005 74.4898 178.977C74.2471 178.94 74.0096 178.859 73.7902 178.732L73.7665 178.718L43.9996 161.523C43.381 161.166 43 160.506 43 159.791V125.4V125.4C43 124.775 43.2919 124.191 43.7794 123.816C43.849 123.762 43.9226 123.713 43.9998 123.668L44.0029 123.666L103.589 89.2679ZM193.961 140.291L219.751 125.4L164.17 93.3093L135.371 109.932C134.752 110.289 133.99 110.289 133.371 109.932L104.589 93.3095L49.0009 125.4L74.7904 140.282L103.59 123.668C103.857 123.514 104.151 123.426 104.448 123.405C104.494 123.402 104.54 123.4 104.586 123.4L104.59 123.4C104.935 123.4 105.28 123.489 105.589 123.668L134.38 140.291L134.38 140.29L163.143 123.683L163.17 123.668C163.407 123.531 163.665 123.447 163.928 123.415C164.051 123.4 164.176 123.396 164.3 123.404C164.601 123.424 164.9 123.512 165.17 123.668L165.17 123.668L165.182 123.675L193.961 140.291ZM195.961 143.755V173.536L221.751 158.645V128.864L195.961 143.755ZM166.169 128.864L191.96 143.755V173.536L166.162 158.646L166.169 128.864ZM136.381 143.754L162.169 128.865L162.161 158.646L136.381 173.535V143.754ZM132.38 143.755V173.535L106.582 158.637L106.59 128.864L132.38 143.755ZM72.79 143.746V173.535L47 158.637V128.863L72.79 143.746ZM76.7904 173.535L102.581 158.637L102.588 128.863L76.7904 143.747V173.535Z" fill="#15133C"/>
</svg>
