<?xml version="1.0" standalone="no"?>
<!DOCTYPE svg PUBLIC "-//W3C//DTD SVG 20010904//EN"
 "http://www.w3.org/TR/2001/REC-SVG-20010904/DTD/svg10.dtd">
<svg version="1.0" xmlns="http://www.w3.org/2000/svg"
 width="260.000000pt" height="260.000000pt" viewBox="0 0 260.000000 260.000000"
 preserveAspectRatio="xMidYMid meet">
<metadata>
Created by potrace 1.14, written by Peter Selinger 2001-2017
</metadata>
<g transform="translate(0.000000,260.000000) scale(0.100000,-0.100000)"
fill="#000000" stroke="none">
<path d="M1264 2322 c-5 -4 -140 -155 -298 -337 -297 -339 -371 -424 -442
-504 -208 -234 -354 -408 -354 -422 0 -10 3 -25 7 -34 8 -22 1096 -745 1120
-745 20 1 67 30 520 325 169 110 370 241 448 291 77 50 150 100 163 112 28 27
28 61 0 93 -12 13 -40 44 -62 69 -23 25 -75 83 -116 130 -41 46 -82 91 -90
100 -8 9 -69 76 -135 150 -66 74 -122 137 -125 140 -3 3 -43 48 -90 100 -47
52 -89 100 -95 106 -20 21 -206 229 -295 329 -76 86 -99 105 -121 105 -13 0
-29 -4 -35 -8z m4 -1457 l-3 -425 -461 308 c-254 169 -463 310 -465 314 -2 4
5 18 15 30 52 62 132 154 142 163 5 6 39 44 75 85 35 41 66 77 69 80 3 3 32
37 65 75 33 39 63 72 66 75 3 3 39 43 79 90 40 47 76 87 79 90 3 3 35 39 71
80 35 41 77 89 91 105 132 148 169 191 171 200 5 17 8 -827 6 -1270z m91 1237
c32 -35 150 -166 286 -318 26 -29 93 -103 129 -144 23 -25 75 -83 116 -129 41
-46 80 -89 85 -95 6 -6 66 -74 134 -151 69 -77 138 -153 154 -170 26 -26 27
-31 13 -40 -9 -5 -85 -55 -169 -109 -437 -285 -778 -506 -781 -506 -1 0 -3
380 -3 845 0 465 2 845 5 845 3 0 17 -13 31 -28z"/>
</g>
</svg>
