<?xml version="1.0" standalone="no"?>
<!DOCTYPE svg PUBLIC "-//W3C//DTD SVG 20010904//EN"
 "http://www.w3.org/TR/2001/REC-SVG-20010904/DTD/svg10.dtd">
<svg version="1.0" xmlns="http://www.w3.org/2000/svg"
 width="512.000000pt" height="512.000000pt" viewBox="0 0 512.000000 512.000000"
 preserveAspectRatio="xMidYMid meet">
<metadata>
Created by potrace 1.14, written by Peter Selinger 2001-2017
</metadata>
<g transform="translate(0.000000,512.000000) scale(0.100000,-0.100000)"
fill="#000000" stroke="none">
<path d="M2550 5111 c-8 -3 -41 -23 -73 -43 -31 -21 -59 -38 -61 -38 -2 0 -53
-30 -112 -67 -140 -85 -568 -345 -1049 -636 -209 -126 -392 -238 -407 -248
-14 -11 -29 -19 -32 -19 -4 0 -33 -17 -66 -37 -32 -21 -124 -77 -203 -125
l-144 -88 0 -1245 0 -1245 56 -33 c31 -17 64 -36 73 -42 9 -5 29 -17 45 -26
15 -9 86 -50 157 -92 70 -43 130 -77 133 -77 2 0 24 -14 49 -30 24 -17 44 -27
45 -23 1 4 2 565 3 1245 l1 1238 120 74 c121 74 728 443 1035 629 91 54 181
110 200 122 74 48 237 145 243 145 6 0 411 -244 732 -440 61 -37 166 -102 235
-143 69 -42 212 -129 319 -194 107 -65 213 -129 236 -143 24 -14 53 -32 65
-40 l22 -15 -1 -1238 c0 -680 1 -1237 4 -1237 6 0 31 14 318 183 l235 139 1
1243 0 1244 -102 63 c-56 34 -111 68 -122 74 -11 6 -193 116 -405 244 -434
263 -960 582 -1033 626 -27 16 -61 36 -75 45 -15 9 -115 69 -222 134 -107 65
-197 119 -200 120 -3 1 -12 0 -20 -4z"/>
<path d="M2848 2132 l-3 -1456 -85 -54 c-47 -29 -94 -57 -105 -62 -11 -5 -33
-18 -50 -29 -16 -12 -35 -21 -42 -21 -11 0 -274 158 -283 171 -3 4 -5 658 -4
1453 0 795 -1 1446 -4 1446 -2 0 -169 -102 -371 -226 l-366 -225 0 -1242 0
-1242 75 -48 c270 -174 956 -585 965 -578 5 5 26 18 45 29 30 17 398 241 847
516 l133 81 -3 1244 -2 1244 -259 159 c-142 87 -263 158 -267 158 -5 0 -9 5
-9 10 0 6 -4 10 -9 10 -6 0 -53 27 -105 60 l-96 59 -2 -1457z"/>
</g>
</svg>
